<svg width="40" height="40" viewBox="0 0 40 40" fill="none" xmlns="http://www.w3.org/2000/svg">
<rect width="40" height="40" rx="5.71429" fill="black"/>
<path d="M18.5588 8.57143C18.3411 8.57143 18.1353 8.67069 17.9998 8.84105L5.86952 24.0905C5.76897 24.2169 5.71423 24.3736 5.71423 24.5352V30.7143C5.71423 31.1088 6.03403 31.4286 6.42852 31.4286H13.2197C13.4414 31.4286 13.6506 31.3256 13.7858 31.1498L20.0266 23.0368C20.4806 22.4465 21.0306 21.8496 21.7707 21.7667C21.9012 21.7521 22.0287 21.7551 22.1428 21.7857C22.3453 21.8401 22.5389 22.0353 22.7044 22.2647C23.1219 22.8436 23.2142 23.5806 23.2142 24.2943V26.9928C23.2142 27.5658 23.2926 28.1392 23.5159 28.6668C23.7058 29.1154 23.9737 29.6513 24.2857 30C24.6844 30.4456 25.3661 30.8213 25.917 31.0754C26.4811 31.3356 27.1025 31.4286 27.7238 31.4286H33.9285C34.323 31.4286 34.6428 31.1088 34.6428 30.7143V20C34.6428 19.6055 34.323 19.2857 33.9285 19.2857H26.7857C26.3912 19.2857 26.0714 18.9659 26.0714 18.5714V9.28571C26.0714 8.89122 25.7516 8.57143 25.3571 8.57143H18.5588Z" fill="white"/>
</svg>
